<?xml version="1.0" encoding="UTF-8" standalone="no"?>
<svg width="800" height="1200" xmlns="http://www.w3.org/2000/svg">
  <!-- Background -->
  <rect width="800" height="1200" fill="#f3f4f6"/>
  
  <!-- Header -->
  <rect x="0" y="0" width="800" height="80" fill="#ffffff" stroke="#e5e7eb"/>
  <text x="40" y="50" font-family="Arial" font-size="24" font-weight="bold">Development Metrics Dashboard</text>
  
  <!-- Date Range Picker -->
  <rect x="500" y="30" width="150" height="30" rx="6" fill="#ffffff" stroke="#d1d5db"/>
  <text x="515" y="50" font-family="Arial" font-size="14">This Month</text>
  <circle cx="625" cy="45" r="8" fill="#3b82f6"/>
  <line x1="621" y1="45" x2="629" y2="45" stroke="#ffffff" stroke-width="2"/>
  <line x1="625" y1="41" x2="625" y2="49" stroke="#ffffff" stroke-width="2"/>
  
  <!-- Export Button -->
  <rect x="660" y="30" width="120" height="30" rx="6" fill="#3b82f6"/>
  <text x="675" y="50" font-family="Arial" font-size="14" fill="#ffffff">Export Report</text>
  
  <!-- Navigation Tabs -->
  <rect x="0" y="80" width="800" height="50" fill="#ffffff" stroke="#e5e7eb"/>
  <rect x="40" y="80" width="100" height="50" fill="#ffffff" stroke="#3b82f6" stroke-width="2"/>
  <text x="65" y="110" font-family="Arial" font-size="14" font-weight="bold" fill="#3b82f6">Overview</text>
  
  <text x="165" y="110" font-family="Arial" font-size="14" fill="#6b7280">Teams</text>
  <text x="265" y="110" font-family="Arial" font-size="14" fill="#6b7280">Members</text>
  <text x="365" y="110" font-family="Arial" font-size="14" fill="#6b7280">JIRA Metrics</text>
  <text x="495" y="110" font-family="Arial" font-size="14" fill="#6b7280">Git Metrics</text>
  <text x="615" y="110" font-family="Arial" font-size="14" fill="#6b7280">Correlation</text>
  
  <!-- Metric Cards -->
  <rect x="40" y="150" width="170" height="100" rx="6" fill="#ffffff" stroke="#e5e7eb"/>
  <circle cx="65" cy="180" r="15" fill="#f0f9ff"/>
  <text x="100" y="175" font-family="Arial" font-size="12" fill="#6b7280">Story Points Completed</text>
  <text x="100" y="205" font-family="Arial" font-size="24" font-weight="bold">359</text>
  
  <rect x="230" y="150" width="170" height="100" rx="6" fill="#ffffff" stroke="#e5e7eb"/>
  <circle cx="255" cy="180" r="15" fill="#f0f9ff"/>
  <text x="290" y="175" font-family="Arial" font-size="12" fill="#6b7280">Total Commits</text>
  <text x="290" y="205" font-family="Arial" font-size="24" font-weight="bold">530</text>
  
  <rect x="420" y="150" width="170" height="100" rx="6" fill="#ffffff" stroke="#e5e7eb"/>
  <circle cx="445" cy="180" r="15" fill="#f0f9ff"/>
  <text x="480" y="175" font-family="Arial" font-size="12" fill="#6b7280">Pull Requests Merged</text>
  <text x="480" y="205" font-family="Arial" font-size="24" font-weight="bold">112</text>
  
  <rect x="610" y="150" width="170" height="100" rx="6" fill="#ffffff" stroke="#e5e7eb"/>
  <circle cx="635" cy="180" r="15" fill="#f0f9ff"/>
  <text x="670" y="175" font-family="Arial" font-size="12" fill="#6b7280">Active Teams</text>
  <text x="670" y="205" font-family="Arial" font-size="24" font-weight="bold">10</text>
  
  <!-- Weekly Activity Trends Chart -->
  <rect x="40" y="270" width="740" height="300" rx="6" fill="#ffffff" stroke="#e5e7eb"/>
  <text x="60" y="300" font-family="Arial" font-size="18" font-weight="bold">Weekly Activity Trends</text>
  
  <!-- Chart Controls -->
  <rect x="600" y="280" width="160" height="30" rx="6" fill="#ffffff" stroke="#d1d5db"/>
  <text x="620" y="300" font-family="Arial" font-size="14">All Metrics</text>
  <text x="710" y="300" font-family="Arial" font-size="14">▼</text>
  
  <!-- Chart Area -->
  <rect x="60" y="320" width="700" height="230" fill="#ffffff" stroke="#e5e7eb" stroke-dasharray="2,2"/>
  
  <!-- X-Axis -->
  <line x1="60" y1="520" x2="760" y2="520" stroke="#9ca3af" stroke-width="1"/>
  <text x="100" y="540" font-family="Arial" font-size="12" fill="#6b7280">Week 1</text>
  <text x="250" y="540" font-family="Arial" font-size="12" fill="#6b7280">Week 2</text>
  <text x="400" y="540" font-family="Arial" font-size="12" fill="#6b7280">Week 3</text>
  <text x="550" y="540" font-family="Arial" font-size="12" fill="#6b7280">Week 4</text>
  <text x="700" y="540" font-family="Arial" font-size="12" fill="#6b7280">Week 5</text>
  
  <!-- Y-Axis -->
  <line x1="60" y1="320" x2="60" y2="520" stroke="#9ca3af" stroke-width="1"/>
  <text x="40" y="520" font-family="Arial" font-size="12" fill="#6b7280">0</text>
  <text x="40" y="420" font-family="Arial" font-size="12" fill="#6b7280">50</text>
  <text x="30" y="320" font-family="Arial" font-size="12" fill="#6b7280">100</text>
  
  <!-- Chart Lines -->
  <polyline points="100,420 250,400 400,410 550,380 700,360" fill="none" stroke="#3b82f6" stroke-width="3"/>
  <polyline points="100,450 250,425 400,440 550,410 700,390" fill="none" stroke="#10b981" stroke-width="3"/>
  <polyline points="100,480 250,465 400,450 550,455 700,430" fill="none" stroke="#8b5cf6" stroke-width="3"/>
  
  <!-- Legend -->
  <rect x="60" y="555" width="12" height="5" fill="#3b82f6"/>
  <text x="80" y="560" font-family="Arial" font-size="12" fill="#6b7280">Story Points</text>
  
  <rect x="180" y="555" width="12" height="5" fill="#10b981"/>
  <text x="200" y="560" font-family="Arial" font-size="12" fill="#6b7280">Commits</text>
  
  <rect x="280" y="555" width="12" height="5" fill="#8b5cf6"/>
  <text x="300" y="560" font-family="Arial" font-size="12" fill="#6b7280">Pull Requests</text>
  
  <!-- Correlation Chart -->
  <rect x="40" y="590" width="740" height="300" rx="6" fill="#ffffff" stroke="#e5e7eb"/>
  <text x="60" y="620" font-family="Arial" font-size="18" font-weight="bold">Story Points to Code Correlation</text>
  
  <!-- Scatter Plot -->
  <rect x="60" y="640" width="700" height="230" fill="#ffffff" stroke="#e5e7eb" stroke-dasharray="2,2"/>
  
  <!-- X-Axis -->
  <line x1="60" y1="840" x2="760" y2="840" stroke="#9ca3af" stroke-width="1"/>
  <text x="400" y="860" font-family="Arial" font-size="12" fill="#6b7280">Story Points</text>
  
  <!-- Y-Axis -->
  <line x1="60" y1="640" x2="60" y2="840" stroke="#9ca3af" stroke-width="1"/>
  <text x="25" y="740" font-family="Arial" font-size="12" fill="#6b7280" transform="rotate(-90 25,740)">Commits</text>
  
  <!-- Data Points -->
  <circle cx="200" cy="700" r="8" fill="#8884d8"/>
  <circle cx="350" cy="680" r="8" fill="#8884d8"/>
  <circle cx="450" cy="740" r="8" fill="#8884d8"/>
  <circle cx="550" cy="660" r="8" fill="#8884d8"/>
  <circle cx="650" cy="720" r="8" fill="#8884d8"/>
  
  <!-- Legend -->
  <text x="60" y="880" font-family="Arial" font-size="12" fill="#6b7280">Chart shows correlation between story points completed and commit activity per team</text>
  
  <!-- Teams Table -->
  <rect x="40" y="910" width="740" height="270" rx="6" fill="#ffffff" stroke="#e5e7eb"/>
  <text x="60" y="940" font-family="Arial" font-size="18" font-weight="bold">Team Performance</text>
  
  <!-- Table Header -->
  <rect x="60" y="960" width="700" height="40" fill="#f9fafb"/>
  <text x="80" y="985" font-family="Arial" font-size="12" font-weight="bold" fill="#374151">Team</text>
  <text x="250" y="985" font-family="Arial" font-size="12" font-weight="bold" fill="#374151">Story Points</text>
  <text x="380" y="985" font-family="Arial" font-size="12" font-weight="bold" fill="#374151">Commits</text>
  <text x="480" y="985" font-family="Arial" font-size="12" font-weight="bold" fill="#374151">Pull Requests</text>
  <text x="580" y="985" font-family="Arial" font-size="12" font-weight="bold" fill="#374151">SP/Commit Ratio</text>
  <text x="700" y="985" font-family="Arial" font-size="12" font-weight="bold" fill="#374151">Actions</text>
  
  <!-- Table Rows -->
  <line x1="60" y1="1000" x2="760" y2="1000" stroke="#e5e7eb" stroke-width="1"/>
  
  <!-- Row 1 -->
  <text x="80" y="1025" font-family="Arial" font-size="14" fill="#111827">Team Alpha</text>
  
  <text x="250" y="1025" font-family="Arial" font-size="14" fill="#111827">85</text>
  <rect x="280" y="1020" width="60" height="8" rx="4" fill="#e5e7eb"/>
  <rect x="280" y="1020" width="51" height="8" rx="4" fill="#3b82f6"/>
  
  <text x="380" y="1025" font-family="Arial" font-size="14" fill="#111827">120</text>
  <rect x="410" y="1020" width="60" height="8" rx="4" fill="#e5e7eb"/>
  <rect x="410" y="1020" width="48" height="8" rx="4" fill="#10b981"/>
  
  <text x="490" y="1025" font-family="Arial" font-size="14" fill="#111827">28</text>
  <text x="600" y="1025" font-family="Arial" font-size="14" fill="#111827">0.71</text>
  <text x="700" y="1025" font-family="Arial" font-size="14" fill="#3b82f6">View Details</text>
  
  <line x1="60" y1="1040" x2="760" y2="1040" stroke="#e5e7eb" stroke-width="1"/>
  
  <!-- Row 2 -->
  <text x="80" y="1065" font-family="Arial" font-size="14" fill="#111827">Team Beta</text>
  
  <text x="250" y="1065" font-family="Arial" font-size="14" fill="#111827">72</text>
  <rect x="280" y="1060" width="60" height="8" rx="4" fill="#e5e7eb"/>
  <rect x="280" y="1060" width="43" height="8" rx="4" fill="#3b82f6"/>
  
  <text x="380" y="1065" font-family="Arial" font-size="14" fill="#111827">95</text>
  <rect x="410" y="1060" width="60" height="8" rx="4" fill="#e5e7eb"/>
  <rect x="410" y="1060" width="38" height="8" rx="4" fill="#10b981"/>
  
  <text x="490" y="1065" font-family="Arial" font-size="14" fill="#111827">22</text>
  <text x="600" y="1065" font-family="Arial" font-size="14" fill="#111827">0.76</text>
  <text x="700" y="1065" font-family="Arial" font-size="14" fill="#3b82f6">View Details</text>
  
  <line x1="60" y1="1080" x2="760" y2="1080" stroke="#e5e7eb" stroke-width="1"/>
  
  <!-- Row 3 -->
  <text x="80" y="1105" font-family="Arial" font-size="14" fill="#111827">Team Gamma</text>
  
  <text x="250" y="1105" font-family="Arial" font-size="14" fill="#111827">65</text>
  <rect x="280" y="1100" width="60" height="8" rx="4" fill="#e5e7eb"/>
  <rect x="280" y="1100" width="39" height="8" rx="4" fill="#3b82f6"/>
  
  <text x="380" y="1105" font-family="Arial" font-size="14" fill="#111827">110</text>
  <rect x="410" y="1100" width="60" height="8" rx="4" fill="#e5e7eb"/>
  <rect x="410" y="1100" width="44" height="8" rx="4" fill="#10b981"/>
  
  <text x="490" y="1105" font-family="Arial" font-size="14" fill="#111827">15</text>
  <text x="600" y="1105" font-family="Arial" font-size="14" fill="#111827">0.59</text>
  <text x="700" y="1105" font-family="Arial" font-size="14" fill="#3b82f6">View Details</text>
  
  <line x1="60" y1="1120" x2="760" y2="1120" stroke="#e5e7eb" stroke-width="1"/>
</svg>
