<?xml version="1.0" encoding="UTF-8" standalone="no"?>
<svg width="800" height="1200" xmlns="http://www.w3.org/2000/svg">
  <!-- Background -->
  <rect width="800" height="1200" fill="#f3f4f6"/>
  
  <!-- Header -->
  <rect x="0" y="0" width="800" height="80" fill="#ffffff" stroke="#e5e7eb"/>
  <text x="40" y="50" font-family="Arial" font-size="24" font-weight="bold">Development Metrics Dashboard</text>
  
  <!-- Date Range Picker -->
  <rect x="500" y="30" width="150" height="30" rx="6" fill="#ffffff" stroke="#d1d5db"/>
  <text x="515" y="50" font-family="Arial" font-size="14">This Month</text>
  <circle cx="625" cy="45" r="8" fill="#3b82f6"/>
  <line x1="621" y1="45" x2="629" y2="45" stroke="#ffffff" stroke-width="2"/>
  <line x1="625" y1="41" x2="625" y2="49" stroke="#ffffff" stroke-width="2"/>
  
  <!-- Export Button -->
  <rect x="660" y="30" width="120" height="30" rx="6" fill="#3b82f6"/>
  <text x="675" y="50" font-family="Arial" font-size="14" fill="#ffffff">Export Report</text>
  
  <!-- Navigation Tabs -->
  <rect x="0" y="80" width="800" height="50" fill="#ffffff" stroke="#e5e7eb"/>
  <text x="65" y="110" font-family="Arial" font-size="14" fill="#6b7280">Overview</text>
  <rect x="140" y="80" width="100" height="50" fill="#ffffff" stroke="#3b82f6" stroke-width="2"/>
  <text x="165" y="110" font-family="Arial" font-size="14" font-weight="bold" fill="#3b82f6">Teams</text>
  <text x="265" y="110" font-family="Arial" font-size="14" fill="#6b7280">Members</text>
  <text x="365" y="110" font-family="Arial" font-size="14" fill="#6b7280">JIRA Metrics</text>
  <text x="495" y="110" font-family="Arial" font-size="14" fill="#6b7280">Git Metrics</text>
  <text x="615" y="110" font-family="Arial" font-size="14" fill="#6b7280">Correlation</text>
  
  <!-- Page Title -->
  <text x="40" y="160" font-family="Arial" font-size="24" font-weight="bold">Teams</text>
  <text x="40" y="185" font-family="Arial" font-size="14" fill="#6b7280">Overview of all scrum teams and their performance metrics.</text>
  
  <!-- Search and Filters -->
  <rect x="40" y="200" width="740" height="100" rx="6" fill="#ffffff" stroke="#e5e7eb"/>
  <text x="60" y="225" font-family="Arial" font-size="12" font-weight="bold">Search Teams</text>
  <rect x="60" y="235" width="300" height="35" rx="6" fill="#ffffff" stroke="#d1d5db"/>
  <text x="70" y="258" font-family="Arial" font-size="14" fill="#9ca3af">Search by team name...</text>
  
  <text x="385" y="225" font-family="Arial" font-size="12" font-weight="bold">Sort By</text>
  <rect x="385" y="235" width="150" height="35" rx="6" fill="#ffffff" stroke="#d1d5db"/>
  <text x="395" y="258" font-family="Arial" font-size="14">Team Name</text>
  <text x="505" y="258" font-family="Arial" font-size="14">▼</text>
  
  <text x="560" y="225" font-family="Arial" font-size="12" font-weight="bold">Sort Order</text>
  <rect x="560" y="235" width="150" height="35" rx="6" fill="#ffffff" stroke="#d1d5db"/>
  <text x="570" y="258" font-family="Arial" font-size="14">Ascending</text>
  <text x="680" y="258" font-family="Arial" font-size="14">▼</text>
  
  <!-- Team Metrics Chart -->
  <rect x="40" y="320" width="740" height="250" rx="6" fill="#ffffff" stroke="#e5e7eb"/>
  <text x="60" y="350" font-family="Arial" font-size="18" font-weight="bold">Team Metrics Comparison</text>
  
  <!-- Chart Area -->
  <rect x="60" y="360" width="700" height="190" fill="#ffffff" stroke="#e5e7eb" stroke-dasharray="2,2"/>
  
  <!-- Y-Axis Labels (Team Names) -->
  <text x="60" y="385" font-family="Arial" font-size="12" fill="#6b7280">Team Alpha</text>
  <text x="60" y="415" font-family="Arial" font-size="12" fill="#6b7280">Team Beta</text>
  <text x="60" y="445" font-family="Arial" font-size="12" fill="#6b7280">Team Gamma</text>
  <text x="60" y="475" font-family="Arial" font-size="12" fill="#6b7280">Team Delta</text>
  <text x="60" y="505" font-family="Arial" font-size="12" fill="#6b7280">Team Epsilon</text>
  <text x="60" y="535" font-family="Arial" font-size="12" fill="#6b7280">Team Zeta</text>
  
  <!-- X-Axis -->
  <line x1="150" y1="550" x2="760" y2="550" stroke="#9ca3af" stroke-width="1"/>
  <text x="450" y="570" font-family="Arial" font-size="12" fill="#6b7280">Value</text>
  
  <!-- Horizontal Bar Chart - Multiple Bars per Team -->
  <!-- Team Alpha -->
  <rect x="150" y="375" width="85" height="10" fill="#3b82f6"/>
  <rect x="150" y="390" width="120" height="10" fill="#10b981"/>
  <rect x="150" y="405" width="28" height="10" fill="#8b5cf6"/>
  
  <!-- Team Beta -->
  <rect x="150" y="405" width="72" height="10" fill="#3b82f6"/>
  <rect x="150" y="420" width="95" height="10" fill="#10b981"/>
  <rect x="150" y="435" width="22" height="10" fill="#8b5cf6"/>
  
  <!-- Team Gamma -->
  <rect x="150" y="435" width="65" height="10" fill="#3b82f6"/>
  <rect x="150" y="450" width="110" height="10" fill="#10b981"/>
  <rect x="150" y="465" width="15" height="10" fill="#8b5cf6"/>
  
  <!-- Team Delta -->
  <rect x="150" y="465" width="45" height="10" fill="#3b82f6"/>
  <rect x="150" y="480" width="65" height="10" fill="#10b981"/>
  <rect x="150" y="495" width="12" height="10" fill="#8b5cf6"/>
  
  <!-- Team Epsilon -->
  <rect x="150" y="495" width="92" height="10" fill="#3b82f6"/>
  <rect x="150" y="510" width="140" height="10" fill="#10b981"/>
  <rect x="150" y="525" width="35" height="10" fill="#8b5cf6"/>
  
  <!-- Team Zeta -->
  <rect x="150" y="525" width="57" height="10" fill="#3b82f6"/>
  <rect x="150" y="540" width="75" height="10" fill="#10b981"/>
  <rect x="150" y="555" width="20" height="10" fill="#8b5cf6"/>
  
  <!-- Legend -->
  <rect x="60" y="590" width="12" height="5" fill="#3b82f6"/>
  <text x="80" y="595" font-family="Arial" font-size="12" fill="#6b7280">Story Points</text>
  
  <rect x="180" y="590" width="12" height="5" fill="#10b981"/>
  <text x="200" y="595" font-family="Arial" font-size="12" fill="#6b7280">Commits</text>
  
  <rect x="280" y="590" width="12" height="5" fill="#8b5cf6"/>
  <text x="300" y="595" font-family="Arial" font-size="12" fill="#6b7280">Pull Requests</text>
  
  <!-- Team Cards Grid -->
  <rect x="40" y="630" width="230" height="200" rx="6" fill="#ffffff" stroke="#e5e7eb"/>
  <text x="60" y="660" font-family="Arial" font-size="18" font-weight="bold">Team Alpha</text>
  <text x="60" y="685" font-family="Arial" font-size="12" fill="#6b7280">Story Points</text>
  <text x="60" y="705" font-family="Arial" font-size="16" font-weight="bold">85/100</text>
  <rect x="60" y="715" width="190" height="8" rx="4" fill="#e5e7eb"/>
  <rect x="60" y="715" width="161.5" height="8" rx="4" fill="#3b82f6"/>
  <text x="60" y="740" font-family="Arial" font-size="12" fill="#6b7280">Commits</text>
  <text x="60" y="760" font-family="Arial" font-size="16" font-weight="bold">120</text>
  <text x="60" y="785" font-family="Arial" font-size="12" fill="#6b7280">Efficiency</text>
  <text x="60" y="805" font-family="Arial" font-size="16" font-weight="bold">85%</text>
  <rect x="60" y="810" width="190" height="1" stroke="#e5e7eb"/>
  <text x="125" y="825" font-family="Arial" font-size="14" fill="#3b82f6">View Details</text>
  
  <rect x="290" y="630" width="230" height="200" rx="6" fill="#ffffff" stroke="#e5e7eb"/>
  <text x="310" y="660" font-family="Arial" font-size="18" font-weight="bold">Team Beta</text>
  <text x="310" y="685" font-family="Arial" font-size="12" fill="#6b7280">Story Points</text>
  <text x="310" y="705" font-family="Arial" font-size="16" font-weight="bold">72/90</text>
  <rect x="310" y="715" width="190" height="8" rx="4" fill="#e5e7eb"/>
  <rect x="310" y="715" width="152" height="8" rx="4" fill="#3b82f6"/>
  <text x="310" y="740" font-family="Arial" font-size="12" fill="#6b7280">Commits</text>
  <text x="310" y="760" font-family="Arial" font-size="16" font-weight="bold">95</text>
  <text x="310" y="785" font-family="Arial" font-size="12" fill="#6b7280">Efficiency</text>
  <text x="310" y="805" font-family="Arial" font-size="16" font-weight="bold">80%</text>
  <rect x="310" y="810" width="190" height="1" stroke="#e5e7eb"/>
  <text x="375" y="825" font-family="Arial" font-size="14" fill="#3b82f6">View Details</text>
  
  <rect x="540" y="630" width="230" height="200" rx="6" fill="#ffffff" stroke="#e5e7eb"/>
  <text x="560" y="660" font-family="Arial" font-size="18" font-weight="bold">Team Gamma</text>
  <text x="560" y="685" font-family="Arial" font-size="12" fill="#6b7280">Story Points</text>
  <text x="560" y="705" font-family="Arial" font-size="16" font-weight="bold">65/70</text>
  <rect x="560" y="715" width="190" height="8" rx="4" fill="#e5e7eb"/>
  <rect x="560" y="715" width="176" height="8" rx="4" fill="#3b82f6"/>
  <text x="560" y="740" font-family="Arial" font-size="12" fill="#6b7280">Commits</text>
  <text x="560" y="760" font-family="Arial" font-size="16" font-weight="bold">110</text>
  <text x="560" y="785" font-family="Arial" font-size="12" fill="#6b7280">Efficiency</text>
  <text x="560" y="805" font-family="Arial" font-size="16" font-weight="bold">93%</text>
  <rect x="560" y="810" width="190" height="1" stroke="#e5e7eb"/>
  <text x="625" y="825" font-family="Arial" font-size="14" fill="#3b82f6">View Details</text>
  
  <rect x="40" y="850" width="230" height="200" rx="6" fill="#ffffff" stroke="#e5e7eb"/>
  <text x="60" y="880" font-family="Arial" font-size="18" font-weight="bold">Team Delta</text>
  <text x="60" y="905" font-family="Arial" font-size="12" fill="#6b7280">Story Points</text>
  <text x="60" y="925" font-family="Arial" font-size="16" font-weight="bold">45/60</text>
  <rect x="60" y="935" width="190" height="8" rx="4" fill="#e5e7eb"/>
  <rect x="60" y="935" width="142" height="8" rx="4" fill="#3b82f6"/>
  <text x="60" y="960" font-family="Arial" font-size="12" fill="#6b7280">Commits</text>
  <text x="60" y="980" font-family="Arial" font-size="16" font-weight="bold">65</text>
  <text x="60" y="1005" font-family="Arial" font-size="12" fill="#6b7280">Efficiency</text>
  <text x="60" y="1025" font-family="Arial" font-size="16" font-weight="bold">75%</text>
  <rect x="60" y="1030" width="190" height="1" stroke="#e5e7eb"/>
  <text x="125" y="1045" font-family="Arial" font-size="14" fill="#3b82f6">View Details</text>
  
  <rect x="290" y="850" width="230" height="200" rx="6" fill="#ffffff" stroke="#e5e7eb"/>
  <text x="310" y="880" font-family="Arial" font-size="18" font-weight="bold">Team Epsilon</text>
  <text x="310" y="905" font-family="Arial" font-size="12" fill="#6b7280">Story Points</text>
  <text x="310" y="925" font-family="Arial" font-size="16" font-weight="bold">92/110</text>
  <rect x="310" y="935" width="190" height="8" rx="4" fill="#e5e7eb"/>
  <rect x="310" y="935" width="158" height="8" rx="4" fill="#3b82f6"/>
  <text x="310" y="960" font-family="Arial" font-size="12" fill="#6b7280">Commits</text>
  <text x="310" y="980" font-family="Arial" font-size="16" font-weight="bold">140</text>
  <text x="310" y="1005" font-family="Arial" font-size="12" fill="#6b7280">Efficiency</text>
  <text x="310" y="1025" font-family="Arial" font-size="16" font-weight="bold">84%</text>
  <rect x="310" y="1030" width="190" height="1" stroke="#e5e7eb"/>
  <text x="375" y="1045" font-family="Arial" font-size="14" fill="#3b82f6">View Details</text>
  
  <rect x="540" y="850" width="230" height="200" rx="6" fill="#ffffff" stroke="#e5e7eb"/>
  <text x="560" y="880" font-family="Arial" font-size="18" font-weight="bold">Team Zeta</text>
  <text x="560" y="905" font-family="Arial" font-size="12" fill="#6b7280">Story Points</text>
  <text x="560" y="925" font-family="Arial" font-size="16" font-weight="bold">57/80</text>
  <rect x="560" y="935" width="190" height="8" rx="4" fill="#e5e7eb"/>
  <rect x="560" y="935" width="135" height="8" rx="4" fill="#3b82f6"/>
  <text x="560" y="960" font-family="Arial" font-size="12" fill="#6b7280">Commits</text>
  <text x="560" y="980" font-family="Arial" font-size="16" font-weight="bold">75</text>
  <text x="560" y="1005" font-family="Arial" font-size="12" fill="#6b7280">Efficiency</text>
  <text x="560" y="1025" font-family="Arial" font-size="16" font-weight="bold">71%</text>
  <rect x="560" y="1030" width="190" height="1" stroke="#e5e7eb"/>
  <text x="625" y="1045" font-family="Arial" font-size="14" fill="#3b82f6">View Details</text>
</svg>
