<?xml version="1.0" encoding="UTF-8" standalone="no"?>
<svg width="800" height="1200" xmlns="http://www.w3.org/2000/svg">
  <!-- Background -->
  <rect width="800" height="1200" fill="#f3f4f6"/>
  
  <!-- Header -->
  <rect x="0" y="0" width="800" height="80" fill="#ffffff" stroke="#e5e7eb"/>
  <text x="40" y="50" font-family="Arial" font-size="24" font-weight="bold">Development Metrics Dashboard</text>
  
  <!-- Date Range Picker -->
  <rect x="500" y="30" width="150" height="30" rx="6" fill="#ffffff" stroke="#d1d5db"/>
  <text x="515" y="50" font-family="Arial" font-size="14">This Month</text>
  <circle cx="625" cy="45" r="8" fill="#3b82f6"/>
  <line x1="621" y1="45" x2="629" y2="45" stroke="#ffffff" stroke-width="2"/>
  <line x1="625" y1="41" x2="625" y2="49" stroke="#ffffff" stroke-width="2"/>
  
  <!-- Export Button -->
  <rect x="660" y="30" width="120" height="30" rx="6" fill="#3b82f6"/>
  <text x="675" y="50" font-family="Arial" font-size="14" fill="#ffffff">Export Report</text>
  
  <!-- Navigation Tabs -->
  <rect x="0" y="80" width="800" height="50" fill="#ffffff" stroke="#e5e7eb"/>
  <text x="65" y="110" font-family="Arial" font-size="14" fill="#6b7280">Overview</text>
  <rect x="140" y="80" width="100" height="50" fill="#ffffff" stroke="#3b82f6" stroke-width="2"/>
  <text x="165" y="110" font-family="Arial" font-size="14" font-weight="bold" fill="#3b82f6">Teams</text>
  <text x="265" y="110" font-family="Arial" font-size="14" fill="#6b7280">Members</text>
  <text x="365" y="110" font-family="Arial" font-size="14" fill="#6b7280">JIRA Metrics</text>
  <text x="495" y="110" font-family="Arial" font-size="14" fill="#6b7280">Git Metrics</text>
  <text x="615" y="110" font-family="Arial" font-size="14" fill="#6b7280">Correlation</text>
  
  <!-- Team Header -->
  <rect x="40" y="150" width="740" height="100" rx="6" fill="#ffffff" stroke="#e5e7eb"/>
  <text x="60" y="180" font-family="Arial" font-size="24" font-weight="bold">Team Alpha</text>
  <text x="60" y="205" font-family="Arial" font-size="14" fill="#6b7280">Team Performance Dashboard</text>
  
  <text x="500" y="175" font-family="Arial" font-size="12" fill="#6b7280">Story Points</text>
  <text x="500" y="195" font-family="Arial" font-size="18" font-weight="bold">85/100</text>
  
  <text x="600" y="175" font-family="Arial" font-size="12" fill="#6b7280">Commits</text>
  <text x="600" y="195" font-family="Arial" font-size="18" font-weight="bold">120</text>
  
  <text x="680" y="175" font-family="Arial" font-size="12" fill="#6b7280">Pull Requests</text>
  <text x="680" y="195" font-family="Arial" font-size="18" font-weight="bold">28</text>
  
  <text x="760" y="175" font-family="Arial" font-size="12" fill="#6b7280">Efficiency</text>
  <text x="760" y="195" font-family="Arial" font-size="18" font-weight="bold">85%</text>
  
  <!-- Sprint Trends -->
  <rect x="40" y="270" width="740" height="250" rx="6" fill="#ffffff" stroke="#e5e7eb"/>
  <text x="60" y="300" font-family="Arial" font-size="18" font-weight="bold">Sprint Performance Trends</text>
  
  <!-- Chart Area -->
  <rect x="60" y="310" width="700" height="190" fill="#ffffff" stroke="#e5e7eb" stroke-dasharray="2,2"/>
  
  <!-- X-Axis -->
  <line x1="60" y1="500" x2="760" y2="500" stroke="#9ca3af" stroke-width="1"/>
  <text x="100" y="520" font-family="Arial" font-size="12" fill="#6b7280">Sprint 1</text>
  <text x="250" y="520" font-family="Arial" font-size="12" fill="#6b7280">Sprint 2</text>
  <text x="400" y="520" font-family="Arial" font-size="12" fill="#6b7280">Sprint 3</text>
  <text x="550" y="520" font-family="Arial" font-size="12" fill="#6b7280">Sprint 4</text>
  
  <!-- Y-Axis -->
  <line x1="60" y1="310" x2="60" y2="500" stroke="#9ca3af" stroke-width="1"/>
  <text x="40" y="500" font-family="Arial" font-size="12" fill="#6b7280">0</text>
  <text x="40" y="405" font-family="Arial" font-size="12" fill="#6b7280">15</text>
  <text x="40" y="310" font-family="Arial" font-size="12" fill="#6b7280">30</text>
  
  <!-- Chart Lines -->
  <polyline points="100,410 250,390 400,400 550,370" fill="none" stroke="#3b82f6" stroke-width="3"/>
  <polyline points="100,420 250,400 400,390 550,390" fill="none" stroke="#10b981" stroke-width="3"/>
  <polyline points="100,460 250,450 400,440 550,450" fill="none" stroke="#8b5cf6" stroke-width="3"/>
  
  <!-- Legend -->
  <rect x="60" y="535" width="12" height="5" fill="#3b82f6"/>
  <text x="80" y="540" font-family="Arial" font-size="12" fill="#6b7280">Story Points</text>
  
  <rect x="180" y="535" width="12" height="5" fill="#10b981"/>
  <text x="200" y="540" font-family="Arial" font-size="12" fill="#6b7280">Commits</text>
  
  <rect x="280" y="535" width="12" height="5" fill="#8b5cf6"/>
  <text x="300" y="540" font-family="Arial" font-size="12" fill="#6b7280">Pull Requests</text>
  
  <!-- Team Members -->
  <text x="40" y="600" font-family="Arial" font-size="20" font-weight="bold">Team Members</text>
  
  <!-- Member Card 1 -->
  <rect x="40" y="620" width="230" height="220" rx="6" fill="#ffffff" stroke="#e5e7eb"/>
  <circle cx="65" cy="650" r="15" fill="#e5e7eb"/>
  <text x="65" y="655" font-family="Arial" font-size="16" font-weight="bold" text-anchor="middle">A</text>
  <text x="90" y="645" font-family="Arial" font-size="16" font-weight="bold">Alex Johnson</text>
  <text x="90" y="665" font-family="Arial" font-size="14" fill="#6b7280">Team Alpha</text>
  
  <!-- Metrics Grid -->
  <rect x="55" y="680" width="90" height="70" rx="4" fill="#f0f7ff"/>
  <text x="60" y="695" font-family="Arial" font-size="10" fill="#6b7280">Story Points</text>
  <text x="95" y="725" font-family="Arial" font-size="18" font-weight="bold">24</text>
  
  <rect x="165" y="680" width="90" height="70" rx="4" fill="#ecfdf5"/>
  <text x="170" y="695" font-family="Arial" font-size="10" fill="#6b7280">Commits</text>
  <text x="210" y="725" font-family="Arial" font-size="18" font-weight="bold">32</text>
  
  <rect x="55" y="760" width="90" height="70" rx="4" fill="#f5f3ff"/>
  <text x="60" y="775" font-family="Arial" font-size="10" fill="#6b7280">PRs Created</text>
  <text x="95" y="805" font-family="Arial" font-size="18" font-weight="bold">8</text>
  
  <rect x="165" y="760" width="90" height="70" rx="4" fill="#eef2ff"/>
  <text x="170" y="775" font-family="Arial" font-size="10" fill="#6b7280">PR Reviews</text>
  <text x="210" y="805" font-family="Arial" font-size="18" font-weight="bold">12</text>
  
  <!-- Response Time -->
  <line x1="55" y1="835" x2="255" y2="835" stroke="#e5e7eb" stroke-width="1"/>
  <text x="55" y="850" font-family="Arial" font-size="12" fill="#6b7280">Review Response Time</text>
  <text x="220" y="850" font-family="Arial" font-size="12" font-weight="bold">6.2 hrs</text>
  
  <!-- Member Card 2 -->
  <rect x="290" y="620" width="230" height="220" rx="6" fill="#ffffff" stroke="#e5e7eb"/>
  <circle cx="315" cy="650" r="15" fill="#e5e7eb"/>
  <text x="315" y="655" font-family="Arial" font-size="16" font-weight="bold" text-anchor="middle">J</text>
  <text x="340" y="645" font-family="Arial" font-size="16" font-weight="bold">Jordan Smith</text>
  <text x="340" y="665" font-family="Arial" font-size="14" fill="#6b7280">Team Alpha</text>
  
  <!-- Metrics Grid -->
  <rect x="305" y="680" width="90" height="70" rx="4" fill="#f0f7ff"/>
  <text x="310" y="695" font-family="Arial" font-size="10" fill="#6b7280">Story Points</text>
  <text x="345" y="725" font-family="Arial" font-size="18" font-weight="bold">18</text>
  
  <rect x="415" y="680" width="90" height="70" rx="4" fill="#ecfdf5"/>
  <text x="420" y="695" font-family="Arial" font-size="10" fill="#6b7280">Commits</text>
  <text x="460" y="725" font-family="Arial" font-size="18" font-weight="bold">25</text>
  
  <rect x="305" y="760" width="90" height="70" rx="4" fill="#f5f3ff"/>
  <text x="310" y="775" font-family="Arial" font-size="10" fill="#6b7280">PRs Created</text>
  <text x="345" y="805" font-family="Arial" font-size="18" font-weight="bold">5</text>
  
  <rect x="415" y="760" width="90" height="70" rx="4" fill="#eef2ff"/>
  <text x="420" y="775" font-family="Arial" font-size="10" fill="#6b7280">PR Reviews</text>
  <text x="460" y="805" font-family="Arial" font-size="18" font-weight="bold">8</text>
  
  <!-- Response Time -->
  <line x1="305" y1="835" x2="505" y2="835" stroke="#e5e7eb" stroke-width="1"/>
  <text x="305" y="850" font-family="Arial" font-size="12" fill="#6b7280">Review Response Time</text>
  <text x="470" y="850" font-family="Arial" font-size="12" font-weight="bold">4.5 hrs</text>
  
  <!-- Member Card 3 -->
  <rect x="540" y="620" width="230" height="220" rx="6" fill="#ffffff" stroke="#e5e7eb"/>
  <circle cx="565" cy="650" r="15" fill="#e5e7eb"/>
  <text x="565" y="655" font-family="Arial" font-size="16" font-weight="bold" text-anchor="middle">T</text>
  <text x="590" y="645" font-family="Arial" font-size="16" font-weight="bold">Taylor Roberts</text>
  <text x="590" y="665" font-family="Arial" font-size="14" fill="#6b7280">Team Alpha</text>
  
  <!-- Metrics Grid -->
  <rect x="555" y="680" width="90" height="70" rx="4" fill="#f0f7ff"/>
  <text x="560" y="695" font-family="Arial" font-size="10" fill="#6b7280">Story Points</text>
  <text x="595" y="725" font-family="Arial" font-size="18" font-weight="bold">22</text>
  
  <rect x="665" y="680" width="90" height="70" rx="4" fill="#ecfdf5"/>
  <text x="670" y="695" font-family="Arial" font-size="10" fill="#6b7280">Commits</text>
  <text x="710" y="725" font-family="Arial" font-size="18" font-weight="bold">30</text>
  
  <rect x="555" y="760" width="90" height="70" rx="4" fill="#f5f3ff"/>
  <text x="560" y="775" font-family="Arial" font-size="10" fill="#6b7280">PRs Created</text>
  <text x="595" y="805" font-family="Arial" font-size="18" font-weight="bold">7</text>
  
  <rect x="665" y="760" width="90" height="70" rx="4" fill="#eef2ff"/>
  <text x="670" y="775" font-family="Arial" font-size="10" fill="#6b7280">PR Reviews</text>
  <text x="710" y="805" font-family="Arial" font-size="18" font-weight="bold">10</text>
  
  <!-- Response Time -->
  <line x1="555" y1="835" x2="755" y2="835" stroke="#e5e7eb" stroke-width="1"/>
  <text x="555" y="850" font-family="Arial" font-size="12" fill="#6b7280">Review Response Time</text>
  <text x="720" y="850" font-family="Arial" font-size="12" font-weight="bold">5.1 hrs</text>
  
  <!-- Correlation Analysis -->
  <rect x="40" y="860" width="740" height="300" rx="6" fill="#ffffff" stroke="#e5e7eb"/>
  <text x="60" y="890" font-family="Arial" font-size="18" font-weight="bold">Story Points to Commit Correlation</text>
  
  <!-- Scatter Plot -->
  <rect x="60" y="900" width="700" height="240" fill="#ffffff" stroke="#e5e7eb" stroke-dasharray="2,2"/>
  
  <!-- X-Axis -->
  <line x1="60" y1="1100" x2="760" y2="1100" stroke="#9ca3af" stroke-width="1"/>
  <text x="400" y="1120" font-family="Arial" font-size="12" fill="#6b7280">Story Points</text>
  
  <!-- Y-Axis -->
  <line x1="60" y1="900" x2="60" y2="1100" stroke="#9ca3af" stroke-width="1"/>
  <text x="25" y="1000" font-family="Arial" font-size="12" fill="#6b7280" transform="rotate(-90 25,1000)">Commits</text>
  
  <!-- Data Points -->
  <circle cx="240" cy="955" r="6" fill="#82ca9d"/>
  <text x="250" y="955" font-family="Arial" font-size="10">Alex</text>
  
  <circle cx="180" cy="985" r="6" fill="#82ca9d"/>
  <text x="190" y="985" font-family="Arial" font-size="10">Jordan</text>
  
  <circle cx="220" cy="970" r="6" fill="#82ca9d"/>
  <text x="230" y="970" font-family="Arial" font-size="10">Taylor</text>
  
  <circle cx="210" cy="955" r="6" fill="#82ca9d"/>
  <text x="220" y="955" font-family="Arial" font-size="10">Morgan</text>
  
  <!-- Legend -->
  <text x="60" y="1140" font-family="Arial" font-size="12" fill="#6b7280">Chart shows the relationship between story points completed and commit activity for each team member</text>
</svg>
