<?xml version="1.0" encoding="UTF-8" standalone="no"?>
<svg width="800" height="1200" xmlns="http://www.w3.org/2000/svg">
  <!-- Background -->
  <rect width="800" height="1200" fill="#f3f4f6"/>
  
  <!-- Header -->
  <rect x="0" y="0" width="800" height="80" fill="#ffffff" stroke="#e5e7eb"/>
  <text x="40" y="50" font-family="Arial" font-size="24" font-weight="bold">Development Metrics Dashboard</text>
  
  <!-- Date Range Picker -->
  <rect x="500" y="30" width="150" height="30" rx="6" fill="#ffffff" stroke="#d1d5db"/>
  <text x="515" y="50" font-family="Arial" font-size="14">This Month</text>
  <circle cx="625" cy="45" r="8" fill="#3b82f6"/>
  <line x1="621" y1="45" x2="629" y2="45" stroke="#ffffff" stroke-width="2"/>
  <line x1="625" y1="41" x2="625" y2="49" stroke="#ffffff" stroke-width="2"/>
  
  <!-- Export Button -->
  <rect x="660" y="30" width="120" height="30" rx="6" fill="#3b82f6"/>
  <text x="675" y="50" font-family="Arial" font-size="14" fill="#ffffff">Export Report</text>
  
  <!-- Navigation Tabs -->
  <rect x="0" y="80" width="800" height="50" fill="#ffffff" stroke="#e5e7eb"/>
  <text x="65" y="110" font-family="Arial" font-size="14" fill="#6b7280">Overview</text>
  <text x="165" y="110" font-family="Arial" font-size="14" fill="#6b7280">Teams</text>
  <rect x="230" y="80" width="120" height="50" fill="#ffffff" stroke="#3b82f6" stroke-width="2"/>
  <text x="265" y="110" font-family="Arial" font-size="14" font-weight="bold" fill="#3b82f6">Members</text>
  <text x="365" y="110" font-family="Arial" font-size="14" fill="#6b7280">JIRA Metrics</text>
  <text x="495" y="110" font-family="Arial" font-size="14" fill="#6b7280">Git Metrics</text>
  <text x="615" y="110" font-family="Arial" font-size="14" fill="#6b7280">Correlation</text>
  
  <!-- Filtering Controls -->
  <rect x="40" y="150" width="740" height="60" rx="6" fill="#ffffff" stroke="#e5e7eb"/>
  
  <!-- Team Filter -->
  <text x="60" y="180" font-family="Arial" font-size="14" font-weight="bold">Team:</text>
  <rect x="110" y="165" width="150" height="30" rx="6" fill="#ffffff" stroke="#d1d5db"/>
  <text x="125" y="185" font-family="Arial" font-size="14">All Teams</text>
  <text x="230" y="185" font-family="Arial" font-size="14">▼</text>
  
  <!-- Time Period Filter -->
  <text x="290" y="180" font-family="Arial" font-size="14" font-weight="bold">Period:</text>
  <rect x="350" y="165" width="150" height="30" rx="6" fill="#ffffff" stroke="#d1d5db"/>
  <text x="365" y="185" font-family="Arial" font-size="14">This Month</text>
  <text x="470" y="185" font-family="Arial" font-size="14">▼</text>
  
  <!-- Search -->
  <text x="530" y="180" font-family="Arial" font-size="14" font-weight="bold">Search:</text>
  <rect x="590" y="165" width="150" height="30" rx="6" fill="#ffffff" stroke="#d1d5db"/>
  <text x="605" y="185" font-family="Arial" font-size="14" fill="#9ca3af">Search members...</text>
  
  <!-- Member Cards Section -->
  <text x="40" y="240" font-family="Arial" font-size="18" font-weight="bold">Team Members</text>
  
  <!-- Member Card 1 -->
  <rect x="40" y="260" width="230" height="220" rx="6" fill="#ffffff" stroke="#e5e7eb"/>
  <circle cx="70" cy="290" r="20" fill="#e5e7eb"/>
  <text x="70" y="295" font-family="Arial" font-size="16" font-weight="bold" text-anchor="middle">A</text>
  <text x="100" y="285" font-family="Arial" font-size="16" font-weight="bold">User 1</text>
  <text x="100" y="305" font-family="Arial" font-size="14" fill="#6b7280">Team Alpha</text>
  
  <!-- Metrics Grid -->
  <rect x="60" y="320" width="90" height="70" rx="6" fill="#f0f7ff"/>
  <text x="70" y="335" font-family="Arial" font-size="10" fill="#6b7280">Story Points</text>
  <text x="85" y="365" font-family="Arial" font-size="18" font-weight="bold">24</text>
  
  <rect x="160" y="320" width="90" height="70" rx="6" fill="#ecfdf5"/>
  <text x="170" y="335" font-family="Arial" font-size="10" fill="#6b7280">Commits</text>
  <text x="190" y="365" font-family="Arial" font-size="18" font-weight="bold">32</text>
  
  <rect x="60" y="400" width="90" height="70" rx="6" fill="#f5f3ff"/>
  <text x="70" y="415" font-family="Arial" font-size="10" fill="#6b7280">PRs Created</text>
  <text x="95" y="445" font-family="Arial" font-size="18" font-weight="bold">8</text>
  
  <rect x="160" y="400" width="90" height="70" rx="6" fill="#eef2ff"/>
  <text x="170" y="415" font-family="Arial" font-size="10" fill="#6b7280">PR Reviews</text>
  <text x="190" y="445" font-family="Arial" font-size="18" font-weight="bold">12</text>
  
  <!-- Response Time -->
  <line x1="60" y1="480" x2="250" y2="480" stroke="#e5e7eb" stroke-width="1"/>
  <text x="60" y="495" font-family="Arial" font-size="12" fill="#6b7280">Review Response Time</text>
  <text x="220" y="495" font-family="Arial" font-size="12" font-weight="bold">6.2 hrs</text>
  
  <!-- Member Card 2 -->
  <rect x="290" y="260" width="230" height="220" rx="6" fill="#ffffff" stroke="#e5e7eb"/>
  <circle cx="320" cy="290" r="20" fill="#e5e7eb"/>
  <text x="320" y="295" font-family="Arial" font-size="16" font-weight="bold" text-anchor="middle">B</text>
  <text x="350" y="285" font-family="Arial" font-size="16" font-weight="bold">User 2</text>
  <text x="350" y="305" font-family="Arial" font-size="14" fill="#6b7280">Team Alpha</text>
  
  <!-- Metrics Grid -->
  <rect x="310" y="320" width="90" height="70" rx="6" fill="#f0f7ff"/>
  <text x="320" y="335" font-family="Arial" font-size="10" fill="#6b7280">Story Points</text>
  <text x="335" y="365" font-family="Arial" font-size="18" font-weight="bold">18</text>
  
  <rect x="410" y="320" width="90" height="70" rx="6" fill="#ecfdf5"/>
  <text x="420" y="335" font-family="Arial" font-size="10" fill="#6b7280">Commits</text>
  <text x="440" y="365" font-family="Arial" font-size="18" font-weight="bold">25</text>
  
  <rect x="310" y="400" width="90" height="70" rx="6" fill="#f5f3ff"/>
  <text x="320" y="415" font-family="Arial" font-size="10" fill="#6b7280">PRs Created</text>
  <text x="345" y="445" font-family="Arial" font-size="18" font-weight="bold">5</text>
  
  <rect x="410" y="400" width="90" height="70" rx="6" fill="#eef2ff"/>
  <text x="420" y="415" font-family="Arial" font-size="10" fill="#6b7280">PR Reviews</text>
  <text x="440" y="445" font-family="Arial" font-size="18" font-weight="bold">8</text>
  
  <!-- Response Time -->
  <line x1="310" y1="480" x2="500" y2="480" stroke="#e5e7eb" stroke-width="1"/>
  <text x="310" y="495" font-family="Arial" font-size="12" fill="#6b7280">Review Response Time</text>
  <text x="470" y="495" font-family="Arial" font-size="12" font-weight="bold">4.5 hrs</text>
  
  <!-- Member Card 3 -->
  <rect x="540" y="260" width="230" height="220" rx="6" fill="#ffffff" stroke="#e5e7eb"/>
  <circle cx="570" cy="290" r="20" fill="#e5e7eb"/>
  <text x="570" y="295" font-family="Arial" font-size="16" font-weight="bold" text-anchor="middle">C</text>
  <text x="600" y="285" font-family="Arial" font-size="16" font-weight="bold">User 3</text>
  <text x="600" y="305" font-family="Arial" font-size="14" fill="#6b7280">Team Beta</text>
  
  <!-- Metrics Grid -->
  <rect x="560" y="320" width="90" height="70" rx="6" fill="#f0f7ff"/>
  <text x="570" y="335" font-family="Arial" font-size="10" fill="#6b7280">Story Points</text>
  <text x="585" y="365" font-family="Arial" font-size="18" font-weight="bold">15</text>
  
  <rect x="660" y="320" width="90" height="70" rx="6" fill="#ecfdf5"/>
  <text x="670" y="335" font-family="Arial" font-size="10" fill="#6b7280">Commits</text>
  <text x="690" y="365" font-family="Arial" font-size="18" font-weight="bold">28</text>
  
  <rect x="560" y="400" width="90" height="70" rx="6" fill="#f5f3ff"/>
  <text x="570" y="415" font-family="Arial" font-size="10" fill="#6b7280">PRs Created</text>
  <text x="595" y="445" font-family="Arial" font-size="18" font-weight="bold">6</text>
  
  <rect x="660" y="400" width="90" height="70" rx="6" fill="#eef2ff"/>
  <text x="670" y="415" font-family="Arial" font-size="10" fill="#6b7280">PR Reviews</text>
  <text x="690" y="445" font-family="Arial" font-size="18" font-weight="bold">10</text>
  
  <!-- Response Time -->
  <line x1="560" y1="480" x2="750" y2="480" stroke="#e5e7eb" stroke-width="1"/>
  <text x="560" y="495" font-family="Arial" font-size="12" fill="#6b7280">Review Response Time</text>
  <text x="720" y="495" font-family="Arial" font-size="12" font-weight="bold">2.8 hrs</text>
  
  <!-- Member Card 4 -->
  <rect x="40" y="500" width="230" height="220" rx="6" fill="#ffffff" stroke="#e5e7eb"/>
  <circle cx="70" cy="530" r="20" fill="#e5e7eb"/>
  <text x="70" y="535" font-family="Arial" font-size="16" font-weight="bold" text-anchor="middle">D</text>
  <text x="100" y="525" font-family="Arial" font-size="16" font-weight="bold">User 4</text>
  <text x="100" y="545" font-family="Arial" font-size="14" fill="#6b7280">Team Gamma</text>
  
  <!-- Metrics Grid -->
  <rect x="60" y="560" width="90" height="70" rx="6" fill="#f0f7ff"/>
  <text x="70" y="575" font-family="Arial" font-size="10" fill="#6b7280">Story Points</text>
  <text x="85" y="605" font-family="Arial" font-size="18" font-weight="bold">22</text>
  
  <rect x="160" y="560" width="90" height="70" rx="6" fill="#ecfdf5"/>
  <text x="170" y="575" font-family="Arial" font-size="10" fill="#6b7280">Commits</text>
  <text x="190" y="605" font-family="Arial" font-size="18" font-weight="bold">35</text>
  
  <rect x="60" y="640" width="90" height="70" rx="6" fill="#f5f3ff"/>
  <text x="70" y="655" font-family="Arial" font-size="10" fill="#6b7280">PRs Created</text>
  <text x="95" y="685" font-family="Arial" font-size="18" font-weight="bold">4</text>
  
  <rect x="160" y="640" width="90" height="70" rx="6" fill="#eef2ff"/>
  <text x="170" y="655" font-family="Arial" font-size="10" fill="#6b7280">PR Reviews</text>
  <text x="190" y="685" font-family="Arial" font-size="18" font-weight="bold">15</text>
  
  <!-- Response Time -->
  <line x1="60" y1="720" x2="250" y2="720" stroke="#e5e7eb" stroke-width="1"/>
  <text x="60" y="735" font-family="Arial" font-size="12" fill="#6b7280">Review Response Time</text>
  <text x="220" y="735" font-family="Arial" font-size="12" font-weight="bold">5.0 hrs</text>
  
  <!-- Performance Table -->
  <rect x="40" y="750" width="740" height="400" rx="6" fill="#ffffff" stroke="#e5e7eb"/>
  <text x="60" y="780" font-family="Arial" font-size="18" font-weight="bold">Individual Performance Metrics</text>
  
  <!-- Table Header -->
  <rect x="60" y="800" width="700" height="40" fill="#f9fafb"/>
  <text x="70" y="825" font-family="Arial" font-size="12" font-weight="bold" fill="#374151">Name</text>
  <text x="180" y="825" font-family="Arial" font-size="12" font-weight="bold" fill="#374151">Team</text>
  <text x="290" y="825" font-family="Arial" font-size="12" font-weight="bold" fill="#374151">Story Points</text>
  <text x="390" y="825" font-family="Arial" font-size="12" font-weight="bold" fill="#374151">Commits</text>
  <text x="470" y="825" font-family="Arial" font-size="12" font-weight="bold" fill="#374151">PRs</text>
  <text x="530" y="825" font-family="Arial" font-size="12" font-weight="bold" fill="#374151">PR Reviews</text>
  <text x="630" y="825" font-family="Arial" font-size="12" font-weight="bold" fill="#374151">Response Time</text>
  
  <!-- Table Rows -->
  <line x1="60" y1="840" x2="760" y2="840" stroke="#e5e7eb" stroke-width="1"/>
  
  <!-- Row 1 -->
  <text x="70" y="865" font-family="Arial" font-size="14" fill="#111827">User 1</text>
  <text x="180" y="865" font-family="Arial" font-size="14" fill="#111827">Team Alpha</text>
  <text x="290" y="865" font-family="Arial" font-size="14" fill="#111827">24</text>
  <text x="390" y="865" font-family="Arial" font-size="14" fill="#111827">32</text>
  <text x="470" y="865" font-family="Arial" font-size="14" fill="#111827">8</text>
  <text x="530" y="865" font-family="Arial" font-size="14" fill="#111827">12</text>
  <text x="630" y="865" font-family="Arial" font-size="14" fill="#111827">6.2 hrs</text>
  
  <line x1="60" y1="880" x2="760" y2="880" stroke="#e5e7eb" stroke-width="1"/>
  
  <!-- Row 2 -->
  <text x="70" y="905" font-family="Arial" font-size="14" fill="#111827">User 2</text>
  <text x="180" y="905" font-family="Arial" font-size="14" fill="#111827">Team Alpha</text>
  <text x="290" y="905" font-family="Arial" font-size="14" fill="#111827">18</text>
  <text x="390" y="905" font-family="Arial" font-size="14" fill="#111827">25</text>
  <text x="470" y="905" font-family="Arial" font-size="14" fill="#111827">5</text>
  <text x="530" y="905" font-family="Arial" font-size="14" fill="#111827">8</text>
  <text x="630" y="905" font-family="Arial" font-size="14" fill="#111827">4.5 hrs</text>
  
  <line x1="60" y1="920" x2="760" y2="920" stroke="#e5e7eb" stroke-width="1"/>
  
  <!-- Row 3 -->
  <text x="70" y="945" font-family="Arial" font-size="14" fill="#111827">User 3</text>
  <text x="180" y="945" font-family="Arial" font-size="14" fill="#111827">Team Beta</text>
  <text x="290" y="945" font-family="Arial" font-size="14" fill="#111827">15</text>
  <text x="390" y="945" font-family="Arial" font-size="14" fill="#111827">28</text>
  <text x="470" y="945" font-family="Arial" font-size="14" fill="#111827">6</text>
  <text x="530" y="945" font-family="Arial" font-size="14" fill="#111827">10</text>
  <text x="630" y="945" font-family="Arial" font-size="14" fill="#111827">2.8 hrs</text>
  
  <line x1="60" y1="960" x2="760" y2="960" stroke="#e5e7eb" stroke-width="1"/>
  
  <!-- Row 4 -->
  <text x="70" y="985" font-family="Arial" font-size="14" fill="#111827">User 4</text>
  <text x="180" y="985" font-family="Arial" font-size="14" fill="#111827">Team Gamma</text>
  <text x="290" y="985" font-family="Arial" font-size="14" fill="#111827">22</text>
  <text x="390" y="985" font-family="Arial" font-size="14" fill="#111827">35</text>
  <text x="470" y="985" font-family="Arial" font-size="14" fill="#111827">4</text>
  <text x="530" y="985" font-family="Arial" font-size="14" fill="#111827">15</text>
  <text x="630" y="985" font-family="Arial" font-size="14" fill="#111827">5.0 hrs</text>
  
  <line x1="60" y1="1000" x2="760" y2="1000" stroke="#e5e7eb" stroke-width="1"/>
  
  <!-- Row 5 -->
  <text x="70" y="1025" font-family="Arial" font-size="14" fill="#111827">User 5</text>
  <text x="180" y="1025" font-family="Arial" font-size="14" fill="#111827">Team Delta</text>
  <text x="290" y="1025" font-family="Arial" font-size="14" fill="#111827">12</text>
  <text x="390" y="1025" font-family="Arial" font-size="14" fill="#111827">18</text>
  <text x="470" y="1025" font-family="Arial" font-size="14" fill="#111827">3</text>
  <text x="530" y="1025" font-family="Arial" font-size="14" fill="#111827">6</text>
  <text x="630" y="1025" font-family="Arial" font-size="14" fill="#111827">8.1 hrs</text>
  
  <line x1="60" y1="1040" x2="760" y2="1040" stroke="#e5e7eb" stroke-width="1"/>
  
  <!-- Pagination -->
  <rect x="300" y="1070" width="40" height="30" rx="6" fill="#3b82f6"/>
  <text x="315" y="1090" font-family="Arial" font-size="14" font-weight="bold" fill="#ffffff">1</text>
  
  <rect x="350" y="1070" width="40" height="30" rx="6" fill="#ffffff" stroke="#d1d5db"/>
  <text x="365" y="1090" font-family="Arial" font-size="14" fill="#6b7280">2</text>
  
  <rect x="400" y="1070" width="40" height="30" rx="6" fill="#ffffff" stroke="#d1d5db"/>
  <text x="415" y="1090" font-family="Arial" font-size="14" fill="#6b7280">3</text>
  
  <rect x="450" y="1070" width="40" height="30" rx="6" fill="#ffffff" stroke="#d1d5db"/>
  <text x="465" y="1090" font-family="Arial" font-size="14" fill="#6b7280">4</text>
</svg>
